<svg fill="none" height="32" viewBox="0 0 26 32" width="26" xmlns="http://www.w3.org/2000/svg"><path d="m25.7352 5.44737c.0322-.21864-.0209-.44128-.1483-.62189-.1274-.1806-.3192-.30536-.536-.34846-3.8598-1.42735-7.7114-2.87686-11.5548-4.348557-.1971-.0847533-.4094-.128463-.6239-.128463-.2146 0-.4268.0437097-.6239.128463-3.84502 1.466937-7.69663 2.916447-11.554836 4.348557-.216751.0431-.408647.16786-.536008.34846-.1273613.18061-.1804458.40325-.14827731.62189.03014001 3.48799-.03027389 6.97713.02830881 10.46433.0588149 3.5002 1.5277325 6.4585 3.7685225 9.0675 2.43371 2.7262 5.30202 5.0306 8.48859 6.8198.1644.1302.3679.201.5776.201s.4132-.0708.5776-.201c3.1865-1.7892 6.0548-4.0936 8.4886-6.8198 2.2407-2.609 3.7097-5.5672 3.7685-9.0675.0586-3.4872-.0019-6.97633.0283-10.46433z" fill="#167f8b"/><path d="m17.0967 10.9565-5.8351 5.8351-2.61362-2.6142-1.09427 1.0948 3.70789 3.7079 6.9293-6.9293z" fill="#fff"/></svg>